<svg xmlns="http://www.w3.org/2000/svg" xmlns:xlink="http://www.w3.org/1999/xlink" width="500" zoomAndPan="magnify" viewBox="0 0 375 374.999991" height="500" preserveAspectRatio="xMidYMid meet" version="1.0"><path stroke-linecap="round" transform="matrix(0.347222, 0, 0, 0.347222, 187.499992, 187.499988)" fill="none" stroke-linejoin="round" d="M 0.0000225 -444.386256 C 245.261295 -444.386256 444.386314 -245.261237 444.386314 0.00003546 C 444.386314 245.261308 245.261295 444.386327 0.0000225 444.386327 C -245.26125 444.386327 -444.386269 245.261308 -444.386269 0.00003546 C -444.386269 -245.261237 -245.26125 -444.386256 0.0000225 -444.386256 Z M 0.0000225 -444.386256 " stroke="#ffffff" stroke-width="10" stroke-opacity="1" stroke-miterlimit="4"/><path stroke-linecap="round" transform="matrix(0.347222, 0, 0, 0.347222, 125.408667, 249.591284)" fill="none" stroke-linejoin="round" d="M 178.823054 178.82587 C -18.704464 178.82587 -178.825729 18.704605 -178.825729 -178.822913 " stroke="#ffffff" stroke-width="10" stroke-opacity="1" stroke-miterlimit="4"/><path stroke-linecap="round" transform="matrix(0.347222, 0, 0, 0.347222, 249.591288, 125.408663)" fill="none" stroke-linejoin="round" d="M -178.822926 -178.825716 C 18.704592 -178.825716 178.825857 -18.704451 178.825857 178.823067 " stroke="#ffffff" stroke-width="10" stroke-opacity="1" stroke-miterlimit="4"/><path stroke-linecap="round" transform="matrix(0.347222, 0, 0, 0.347222, 134.461095, 240.538871)" fill="none" stroke-linejoin="round" d="M 152.752061 152.753067 C -15.975455 152.753067 -152.752967 15.975554 -152.752967 -152.751962 " stroke="#ffffff" stroke-width="10" stroke-opacity="1" stroke-miterlimit="4"/><path stroke-linecap="round" transform="matrix(0.347222, 0, 0, 0.347222, 240.538875, 134.46109)" fill="none" stroke-linejoin="round" d="M -152.751974 -152.752954 C 15.975541 -152.752954 152.753054 -15.975442 152.753054 152.752074 " stroke="#ffffff" stroke-width="10" stroke-opacity="1" stroke-miterlimit="4"/><path stroke-linecap="round" transform="matrix(0.347222, 0, 0, 0.347222, 143.384366, 231.615599)" fill="none" stroke-linejoin="round" d="M 127.053037 127.050836 C -13.290726 127.050836 -127.050737 13.290826 -127.050737 -127.052937 " stroke="#ffffff" stroke-width="10" stroke-opacity="1" stroke-miterlimit="4"/><path stroke-linecap="round" transform="matrix(0.347222, 0, 0, 0.347222, 231.615604, 143.384362)" fill="none" stroke-linejoin="round" d="M -127.05295 -127.050724 C 13.290813 -127.050724 127.050823 -13.290713 127.050823 127.05305 " stroke="#ffffff" stroke-width="10" stroke-opacity="1" stroke-miterlimit="4"/><path stroke-linecap="round" transform="matrix(0.347222, 0, 0, 0.347222, 187.499992, 187.499988)" fill="none" stroke-linejoin="round" d="M 0.0000225 -137.834977 C 76.07253 -137.834977 137.835035 -76.072472 137.835035 0.00003546 C 137.835035 76.072543 76.07253 137.835048 0.0000225 137.835048 C -76.072485 137.835048 -137.83499 76.072543 -137.83499 0.00003546 C -137.83499 -76.072472 -76.072485 -137.834977 0.0000225 -137.834977 Z M 0.0000225 -137.834977 " stroke="#228e99" stroke-width="10" stroke-opacity="1" stroke-miterlimit="4"/><path stroke-linecap="round" transform="matrix(0.347222, 0, 0, 0.347222, 187.499992, 187.499988)" fill="none" stroke-linejoin="round" d="M 0.0000225 -26.291217 C 14.512524 -26.291217 26.291275 -14.512466 26.291275 0.00003546 C 26.291275 14.512537 14.512524 26.291288 0.0000225 26.291288 C -14.512479 26.291288 -26.29123 14.512537 -26.29123 0.00003546 C -26.29123 -14.512466 -14.512479 -26.291217 0.0000225 -26.291217 Z M 0.0000225 -26.291217 " stroke="#ffffff" stroke-width="10" stroke-opacity="1" stroke-miterlimit="4"/></svg>